<svg xmlns="http://www.w3.org/2000/svg" viewBox="0 0 64.35 71.15"><!-- property of https://spailybot.app --><defs><style>.cls-1{fill:#644197;}@media (prefers-color-scheme: dark){.cls-1{fill:#7a7fdc}}</style></defs><g id="Calque_2" data-name="Calque 2"><g id="Layer_1" data-name="Layer 1"><path class="cls-1" d="M46.82,19.5,28.34,8.74H41.2A11.45,11.45,0,0,0,51.44,2.42L52.65,0H9.08a13.34,13.34,0,0,0,6.63,11.52L64.35,39.8V36.28a11.44,11.44,0,0,0-5.69-9.89Z"/><path class="cls-1" d="M5.69,21.87,39.48,41.55,32.87,56.18,28.29,46a16.92,16.92,0,0,0-6.93-7.7L13,33.49,27.74,66a8.75,8.75,0,0,0,8,5.14h0l15-33.2L0,8.45V12A11.45,11.45,0,0,0,5.69,21.87Z"/></g></g></svg>
